<?xml version="1.0" encoding="UTF-8" standalone="no"?>
<!-- Created with Inkscape (http://www.inkscape.org/) -->

<svg
   version="1.1"
   id="svg2"
   width="340.15732"
   height="415.74799"
   viewBox="0 0 340.15732 415.74799"
   sodipodi:docname="LogoProdeturArticulacionBasica.ai"
   xmlns:inkscape="http://www.inkscape.org/namespaces/inkscape"
   xmlns:sodipodi="http://sodipodi.sourceforge.net/DTD/sodipodi-0.dtd"
   xmlns="http://www.w3.org/2000/svg"
   xmlns:svg="http://www.w3.org/2000/svg">
  <defs
     id="defs6">
    <clipPath
       clipPathUnits="userSpaceOnUse"
       id="clipPath16">
      <path
         d="M 0,311.811 H 255.118 V 0 H 0 Z"
         id="path14" />
    </clipPath>
  </defs>
  <sodipodi:namedview
     id="namedview4"
     pagecolor="#ffffff"
     bordercolor="#000000"
     borderopacity="0.25"
     inkscape:showpageshadow="2"
     inkscape:pageopacity="0.0"
     inkscape:pagecheckerboard="0"
     inkscape:deskcolor="#d1d1d1" />
  <g
     id="g8"
     inkscape:groupmode="layer"
     inkscape:label="LogoProdeturArticulacionBasica"
     transform="matrix(1.3333333,0,0,-1.3333333,0,415.748)">
    <g
       id="g10">
      <g
         id="g12"
         clip-path="url(#clipPath16)">
        <g
           id="g18"
           transform="translate(222.3379,214.1194)">
          <path
             d="m 0,0 c 0,11.154 -3.788,20.344 -11.294,27.708 -7.575,7.296 -16.975,10.943 -28.198,10.943 -11.292,0 -20.762,-3.647 -28.268,-10.943 -5.095,-4.999 -8.434,-10.827 -10.081,-17.442 -1.092,1.389 -2.324,2.654 -3.715,3.762 -5.962,4.701 -11.853,7.226 -20.271,9.543 -10.802,2.874 -16.204,6.944 -16.204,12.343 0,2.458 0.984,4.56 3.017,6.246 2.033,1.682 4.489,2.525 7.435,2.525 3.157,0 5.823,-0.984 7.856,-2.949 2.035,-1.964 3.087,-4.418 3.087,-7.363 h 22.796 c 0,8.626 -3.227,15.781 -9.61,21.533 -6.383,5.752 -14.448,8.63 -24.129,8.63 -9.313,0 -17.133,-2.723 -23.461,-8.151 -13.022,17.98 -34.02,29.825 -57.765,30.282 V 63.039 c 26.59,-0.757 47.991,-22.605 47.991,-49.374 0,-26.77 -21.401,-48.618 -47.991,-49.374 v -23.628 c 36.869,0.71 67.124,28.861 71.146,64.838 1.572,-0.556 3.192,-1.066 4.889,-1.502 11.716,-3.015 17.536,-7.296 17.536,-12.766 0,-2.666 -1.123,-4.909 -3.366,-6.732 -2.246,-1.827 -5.05,-2.737 -8.418,-2.737 -3.465,0 -6.377,1.104 -8.746,3.298 -2.57,-6.694 -6.081,-12.912 -10.322,-18.554 5.433,-3.035 11.692,-4.595 18.788,-4.595 9.961,0 18.308,2.945 24.971,8.838 3.638,3.178 6.235,6.831 7.878,10.906 1.741,-3.142 3.963,-6.055 6.689,-8.73 7.506,-7.367 16.976,-11.014 28.268,-11.014 8.979,0 16.906,2.384 23.78,7.085 2.202,1.521 4.168,3.212 5.942,5.042 l -13.802,13.476 h -0.137 c -2.525,-4.211 -8.418,-7.297 -15.361,-7.297 -8.628,0 -15.223,5.121 -17.536,13.327 H -0.562 C -0.21,-4.909 0,-2.733 0,0 m -56.467,7.508 c 2.525,8.065 8.769,13.045 16.975,13.045 8.067,0 14.731,-4.98 16.906,-13.045 z"
             style="fill:#0b5550;fill-opacity:1;fill-rule:nonzero;stroke:none"
             id="path20" />
        </g>
        <g
           id="g22"
           transform="translate(44.3582,143.1606)">
          <path
             d="m 0,0 c 4.046,0 7.436,-1.352 10.126,-4.057 2.691,-2.724 4.046,-6.116 4.046,-10.192 0,-4.098 -1.355,-7.489 -4.046,-10.193 C 7.436,-27.166 4.046,-28.52 0,-28.52 H -10.745 V 0 Z m -0.041,-26.118 c 3.329,0 6.101,1.13 8.314,3.391 2.212,2.261 3.329,5.087 3.329,8.478 0,3.369 -1.117,6.197 -3.329,8.456 -2.213,2.261 -4.985,3.391 -8.314,3.391 h -8.212 v -23.716 z"
             style="fill:#0b5550;fill-opacity:1;fill-rule:nonzero;stroke:none"
             id="path24" />
        </g>
        <g
           id="g26"
           transform="translate(60.8503,142.4142)">
          <path
             d="M 0,0 C 0,0.949 0.778,1.695 1.714,1.695 2.692,1.695 3.47,0.949 3.47,0 3.47,-0.99 2.692,-1.736 1.714,-1.736 0.778,-1.736 0,-0.99 0,0 M 0.539,-6.701 H 2.911 V -27.774 H 0.539 Z"
             style="fill:#0b5550;fill-opacity:1;fill-rule:nonzero;stroke:none"
             id="path28" />
        </g>
        <g
           id="g30"
           transform="translate(86.7274,133.0685)">
          <path
             d="m 0,0 c 2.014,-2.119 3.031,-4.743 3.031,-7.871 0,-3.149 -0.998,-5.772 -3.011,-7.893 -2.012,-2.118 -4.564,-3.168 -7.614,-3.168 -1.994,0 -3.768,0.504 -5.343,1.494 -1.574,0.988 -2.791,2.361 -3.627,4.097 v -12.938 h -2.372 V 2.645 h 2.372 v -5.067 c 0.836,1.736 2.053,3.108 3.627,4.098 1.575,0.988 3.349,1.473 5.343,1.473 C -4.544,3.149 -2.013,2.1 0,0 m -7.993,-16.611 c 2.453,0 4.486,0.828 6.119,2.503 1.635,1.676 2.453,3.753 2.453,6.237 0,2.483 -0.818,4.541 -2.453,6.216 C -3.507,0 -5.54,0.828 -7.993,0.828 c -2.452,0 -4.505,-0.828 -6.12,-2.483 -1.633,-1.675 -2.451,-3.733 -2.451,-6.216 0,-2.484 0.818,-4.561 2.451,-6.237 1.615,-1.675 3.668,-2.503 6.12,-2.503"
             style="fill:#0b5550;fill-opacity:1;fill-rule:nonzero;stroke:none"
             id="path32" />
        </g>
        <g
           id="g34"
           transform="translate(108.2241,135.7137)">
          <path
             d="M 0,0 H 2.372 V -21.073 H 0 v 3.937 c -1.555,-2.947 -4.127,-4.421 -7.714,-4.441 -2.492,0 -4.505,0.767 -6.04,2.321 -1.535,1.554 -2.312,3.592 -2.312,6.157 V 0 h 2.351 v -12.434 c 0,-2.038 0.619,-3.693 1.854,-4.945 1.216,-1.251 2.831,-1.877 4.844,-1.877 2.094,0 3.788,0.646 5.084,1.918 1.294,1.271 1.933,2.926 1.933,4.985 z"
             style="fill:#0b5550;fill-opacity:1;fill-rule:nonzero;stroke:none"
             id="path36" />
        </g>
        <g
           id="g38"
           transform="translate(125.1534,135.7137)">
          <path
             d="M 0,0 V -2.18 H -5.103 V -21.073 H -7.475 V -2.18 h -4.844 V 0 h 4.844 v 5.752 l 2.372,0.463 0,-6.215 z"
             style="fill:#0b5550;fill-opacity:1;fill-rule:nonzero;stroke:none"
             id="path40" />
        </g>
        <g
           id="g42"
           transform="translate(144.1159,135.7137)">
          <path
             d="M 0,0 H 2.372 V -21.073 H 0 v 5.047 c -0.878,-1.716 -2.094,-3.069 -3.668,-4.057 -1.575,-0.99 -3.349,-1.494 -5.303,-1.494 -3.01,0 -5.542,1.05 -7.554,3.168 -2.013,2.121 -3.031,4.744 -3.031,7.893 0,3.128 1.018,5.752 3.031,7.871 2.012,2.099 4.525,3.149 7.554,3.149 1.954,0 3.728,-0.485 5.303,-1.473 1.574,-0.99 2.811,-2.342 3.668,-4.057 z M -2.453,-16.753 C -0.818,-15.077 0,-13 0,-10.516 c 0,2.482 -0.818,4.541 -2.453,6.216 -1.633,1.655 -3.667,2.483 -6.12,2.483 -2.411,0 -4.444,-0.828 -6.079,-2.483 -1.634,-1.675 -2.451,-3.734 -2.451,-6.216 0,-2.484 0.817,-4.561 2.451,-6.237 1.635,-1.675 3.668,-2.503 6.079,-2.503 2.453,0 4.487,0.828 6.12,2.503"
             style="fill:#0b5550;fill-opacity:1;fill-rule:nonzero;stroke:none"
             id="path44" />
        </g>
        <g
           id="g46"
           transform="translate(152.2946,117.305)">
          <path
             d="m 0,0 c -2.113,2.12 -3.17,4.743 -3.17,7.893 0,3.127 1.057,5.752 3.17,7.871 2.113,2.099 4.724,3.149 7.853,3.149 2.751,0 5.123,-0.829 7.117,-2.503 1.972,-1.676 3.209,-3.795 3.668,-6.378 h -2.453 c -0.457,1.958 -1.454,3.532 -2.97,4.743 -1.535,1.211 -3.309,1.817 -5.362,1.817 -2.452,0 -4.485,-0.828 -6.12,-2.484 -1.633,-1.674 -2.451,-3.733 -2.451,-6.215 0,-2.484 0.818,-4.562 2.451,-6.238 1.635,-1.674 3.668,-2.503 6.12,-2.503 2.053,0 3.827,0.606 5.362,1.817 1.516,1.211 2.513,2.805 2.97,4.764 h 2.453 C 18.179,3.129 16.942,1.01 14.97,-0.666 12.976,-2.342 10.604,-3.168 7.853,-3.168 4.724,-3.168 2.092,-2.119 0,0"
             style="fill:#0b5550;fill-opacity:1;fill-rule:nonzero;stroke:none"
             id="path48" />
        </g>
        <g
           id="g50"
           transform="translate(172.9123,142.4142)">
          <path
             d="M 0,0 C 0,0.949 0.778,1.695 1.715,1.695 2.692,1.695 3.47,0.949 3.47,0 3.47,-0.99 2.692,-1.736 1.715,-1.736 0.778,-1.736 0,-0.99 0,0 M 0.539,-6.701 H 2.911 V -27.774 H 0.539 Z"
             style="fill:#0b5550;fill-opacity:1;fill-rule:nonzero;stroke:none"
             id="path52" />
        </g>
        <g
           id="g54"
           transform="translate(189.5404,114.1365)">
          <path
             d="m 0,0 c -3.129,0 -5.76,1.05 -7.873,3.168 -2.113,2.121 -3.17,4.744 -3.17,7.893 0,3.128 1.057,5.752 3.17,7.871 2.113,2.1 4.744,3.149 7.873,3.149 3.129,0 5.742,-1.049 7.834,-3.149 2.093,-2.119 3.129,-4.743 3.129,-7.871 C 10.963,7.912 9.927,5.289 7.834,3.168 5.742,1.05 3.129,0 0,0 m -0.02,2.321 c 2.453,0 4.486,0.828 6.1,2.503 1.615,1.676 2.432,3.753 2.432,6.237 0,2.483 -0.817,4.541 -2.432,6.216 -1.614,1.655 -3.647,2.483 -6.1,2.483 -2.452,0 -4.485,-0.828 -6.12,-2.483 -1.633,-1.675 -2.451,-3.733 -2.451,-6.216 0,-2.484 0.818,-4.561 2.451,-6.237 1.635,-1.675 3.668,-2.503 6.12,-2.503 M -1.615,24.603 2.672,29.65 H 5.821 L 0.957,24.603 Z"
             style="fill:#0b5550;fill-opacity:1;fill-rule:nonzero;stroke:none"
             id="path56" />
        </g>
        <g
           id="g58"
           transform="translate(219.9456,133.7957)">
          <path
             d="M 0,0 C 1.594,-1.614 2.392,-3.734 2.392,-6.378 V -19.155 H 0.039 v 12.07 c 0,2.18 -0.637,3.917 -1.933,5.227 -1.296,1.313 -3.011,1.959 -5.144,1.959 -2.212,0 -3.986,-0.667 -5.342,-1.998 -1.355,-1.333 -2.033,-3.088 -2.033,-5.268 v -11.99 h -2.372 V 1.918 h 2.372 v -4.119 c 1.515,2.988 4.387,4.623 8.073,4.623 C -3.727,2.422 -1.615,1.614 0,0"
             style="fill:#0b5550;fill-opacity:1;fill-rule:nonzero;stroke:none"
             id="path60" />
        </g>
        <g
           id="g62"
           transform="translate(49.0756,55.4891)">
          <path
             d="m 0,0 c -4.627,0 -8.506,1.406 -11.602,4.185 -3.129,2.779 -4.692,6.278 -4.692,10.496 h 10.623 c 0,-1.537 0.555,-2.812 1.695,-3.859 1.108,-1.046 2.477,-1.569 4.107,-1.569 1.564,0 2.868,0.426 3.91,1.275 1.044,0.851 1.565,1.897 1.565,3.139 0,2.55 -2.706,4.545 -8.148,5.951 -3.813,0.981 -6.942,2.616 -9.386,4.937 -2.445,2.288 -3.683,5.46 -3.683,9.547 0,3.924 1.466,7.193 4.433,9.809 2.966,2.616 6.648,3.923 11.047,3.923 4.498,0 8.246,-1.34 11.212,-4.021 2.965,-2.681 4.464,-6.016 4.464,-10.037 H 4.954 c 0,1.373 -0.489,2.517 -1.434,3.433 -0.945,0.915 -2.183,1.373 -3.651,1.373 -1.368,0 -2.509,-0.393 -3.454,-1.178 -0.945,-0.784 -1.401,-1.765 -1.401,-2.91 0,-2.517 2.51,-4.413 7.528,-5.754 3.911,-1.079 6.649,-2.256 9.418,-4.446 2.738,-2.191 4.27,-5.591 4.27,-9.94 0,-4.087 -1.532,-7.52 -4.628,-10.234 C 8.506,1.373 4.627,0 0,0"
             style="fill:#0b5550;fill-opacity:1;fill-rule:nonzero;stroke:none"
             id="path64" />
        </g>
        <g
           id="g66"
           transform="translate(128.7321,90.4413)">
          <path
             d="M 0,0 H 10.885 L -2.934,-34.134 H -12.939 L -26.823,0 h 11.146 l 7.886,-21.743 z"
             style="fill:#0b5550;fill-opacity:1;fill-rule:nonzero;stroke:none"
             id="path68" />
        </g>
        <g
           id="g70"
           transform="translate(142.1451,94.7441)">
          <path
             d="m 0,0 c -1.141,1.144 -1.727,2.582 -1.727,4.315 0,1.701 0.586,3.107 1.727,4.251 1.141,1.145 2.575,1.7 4.269,1.7 1.727,0 3.195,-0.555 4.367,-1.7 C 9.777,7.422 10.364,6.016 10.364,4.315 10.364,2.582 9.777,1.144 8.636,0 7.464,-1.145 5.996,-1.7 4.269,-1.7 2.575,-1.7 1.141,-1.145 0,0 m -0.586,-4.303 h 9.744 v -34.134 h -9.744 z"
             style="fill:#0b5550;fill-opacity:1;fill-rule:nonzero;stroke:none"
             id="path72" />
        </g>
        <path
           d="m 156.959,104.533 h 9.744 V 56.306 h -9.744 z"
           style="fill:#0b5550;fill-opacity:1;fill-rule:nonzero;stroke:none"
           id="path74" />
        <path
           d="m 172.359,104.533 h 9.744 V 56.306 h -9.744 z"
           style="fill:#0b5550;fill-opacity:1;fill-rule:nonzero;stroke:none"
           id="path76" />
        <g
           id="g78"
           transform="translate(212.5927,90.4413)">
          <path
             d="M 0,0 H 9.745 V -34.134 H 0 v 3.759 c -2.769,-3.04 -6.192,-4.544 -10.298,-4.577 -4.661,0 -8.571,1.7 -11.701,5.134 -3.161,3.433 -4.724,7.683 -4.724,12.784 0,5.067 1.563,9.318 4.724,12.751 3.13,3.401 7.04,5.101 11.701,5.101 4.074,0 7.529,-1.505 10.298,-4.545 z m -2.346,-23.084 c 1.564,1.603 2.346,3.63 2.346,6.05 0,2.386 -0.782,4.413 -2.379,6.016 -1.597,1.602 -3.585,2.386 -5.964,2.386 -2.379,0 -4.334,-0.784 -5.899,-2.386 -1.597,-1.603 -2.379,-3.63 -2.379,-6.016 0,-2.42 0.782,-4.447 2.379,-6.05 1.565,-1.601 3.52,-2.419 5.899,-2.419 2.412,0 4.399,0.818 5.997,2.419"
             style="fill:#0b5550;fill-opacity:1;fill-rule:nonzero;stroke:none"
             id="path80" />
        </g>
        <g
           id="g82"
           transform="translate(98.7626,86.1579)">
          <path
             d="m 0,0 c -3.52,3.401 -7.887,5.101 -13.103,5.101 -5.247,0 -9.646,-1.7 -13.132,-5.101 -3.488,-3.433 -5.248,-7.684 -5.248,-12.751 0,-5.101 1.76,-9.351 5.248,-12.784 3.486,-3.434 7.885,-5.134 13.132,-5.134 4.172,0 7.856,1.112 11.049,3.303 1.035,0.717 1.959,1.516 2.79,2.381 l -6.381,6.25 H -5.77 c -1.172,-1.961 -3.91,-3.4 -7.137,-3.4 -4.009,0 -7.071,2.387 -8.147,6.212 h 26.04 c 0.162,0.72 0.261,1.733 0.261,3.008 C 5.247,-7.716 3.486,-3.433 0,0 m -20.988,-9.417 c 1.172,3.761 4.072,6.082 7.885,6.082 3.748,0 6.846,-2.321 7.856,-6.082 z"
             style="fill:#0b5550;fill-opacity:1;fill-rule:nonzero;stroke:none"
             id="path84" />
        </g>
        <g
           id="g86"
           transform="translate(69.71,26.5041)">
          <path
             d="m 0,0 v -16.559 h 2.203 v 6.164 h 3.27 c 1.5,0 2.754,0.504 3.773,1.5 1.02,0.997 1.524,2.227 1.524,3.692 0,1.488 -0.504,2.719 -1.5,3.715 C 8.262,-0.492 6.996,0 5.473,0 Z m 2.203,-8.332 v 6.269 h 3.246 c 0.879,0 1.606,-0.304 2.192,-0.902 C 8.227,-3.563 8.52,-4.312 8.52,-5.203 8.52,-6.105 8.227,-6.844 7.652,-7.441 7.066,-8.039 6.328,-8.332 5.449,-8.332 Z m 22.172,-8.227 -5.672,6.575 h 0.199 c 1.453,0 2.672,0.468 3.645,1.418 0.973,0.949 1.465,2.121 1.465,3.527 0,1.441 -0.492,2.637 -1.477,3.598 C 21.551,-0.48 20.32,0 18.855,0 h -5.378 v -16.559 h 2.203 v 6.575 h 0.316 l 5.613,-6.575 z m -5.566,14.496 c 0.843,0 1.546,-0.281 2.109,-0.843 0.551,-0.574 0.832,-1.289 0.832,-2.156 0,-0.868 -0.281,-1.583 -0.832,-2.145 -0.551,-0.574 -1.254,-0.856 -2.109,-0.856 H 15.68 v 6 z m 21.89,-12.328 c 1.653,1.641 2.485,3.68 2.485,6.118 0,2.425 -0.832,4.464 -2.485,6.105 -1.652,1.641 -3.715,2.461 -6.176,2.461 -2.472,0 -4.535,-0.82 -6.187,-2.461 -1.652,-1.641 -2.484,-3.68 -2.484,-6.105 0,-2.438 0.832,-4.477 2.484,-6.118 1.652,-1.64 3.715,-2.461 6.187,-2.461 2.461,0 4.524,0.821 6.176,2.461 m -10.746,1.512 c -1.23,1.231 -1.84,2.766 -1.84,4.606 0,1.839 0.61,3.375 1.84,4.605 1.219,1.23 2.742,1.84 4.57,1.84 1.817,0 3.34,-0.61 4.571,-1.84 1.219,-1.23 1.828,-2.766 1.828,-4.605 0,-1.84 -0.609,-3.375 -1.828,-4.606 -1.231,-1.23 -2.754,-1.851 -4.571,-1.851 -1.828,0 -3.351,0.621 -4.57,1.851 M 46.195,0 v -16.559 h 6.387 c 2.402,0 4.395,0.786 6,2.368 1.594,1.57 2.391,3.539 2.391,5.918 0,2.367 -0.797,4.335 -2.391,5.918 -1.605,1.57 -3.598,2.355 -6,2.355 z m 2.203,-14.496 v 12.433 h 4.161 c 1.757,0 3.222,-0.585 4.406,-1.769 1.172,-1.184 1.758,-2.672 1.758,-4.441 0,-1.782 -0.586,-3.258 -1.758,-4.442 -1.184,-1.183 -2.649,-1.781 -4.406,-1.781 z m 17.778,5.238 h 6.176 v 2.063 h -6.176 v 5.132 h 6.961 V 0 h -9.164 v -16.559 h 9.281 v 2.063 H 66.176 Z M 75.07,0 v -2.063 h 4.758 v -14.496 h 2.203 v 14.496 h 4.758 V 0 Z m 20.719,-16.852 c 1.922,0 3.527,0.633 4.816,1.899 1.278,1.265 1.922,2.848 1.922,4.734 V 0 h -2.179 v -10.172 c 0,-1.301 -0.434,-2.379 -1.289,-3.246 -0.868,-0.879 -1.957,-1.312 -3.27,-1.312 -1.301,0 -2.379,0.433 -3.234,1.312 -0.867,0.867 -1.301,1.945 -1.301,3.246 V 0 h -2.191 v -10.219 c 0,-1.886 0.644,-3.469 1.933,-4.734 1.289,-1.266 2.883,-1.899 4.793,-1.899 m 21.164,0.293 -5.672,6.575 h 0.199 c 1.454,0 2.672,0.468 3.645,1.418 0.973,0.949 1.465,2.121 1.465,3.527 0,1.441 -0.492,2.637 -1.477,3.598 C 114.129,-0.48 112.898,0 111.434,0 h -5.379 v -16.559 h 2.203 v 6.575 h 0.316 l 5.614,-6.575 z m -5.566,14.496 c 0.843,0 1.547,-0.281 2.109,-0.843 0.551,-0.574 0.832,-1.289 0.832,-2.156 0,-0.868 -0.281,-1.583 -0.832,-2.145 -0.551,-0.574 -1.254,-0.856 -2.109,-0.856 h -3.129 v 6 z"
             style="fill:#0b5550;fill-opacity:1;fill-rule:nonzero;stroke:none"
             id="path88" />
        </g>
        <g
           id="g90"
           transform="translate(224.2516,39.9487)">
          <path
             d="M 0,0 H -193.385"
             style="fill:none;stroke:#0b5550;stroke-width:1;stroke-linecap:butt;stroke-linejoin:miter;stroke-miterlimit:4;stroke-dasharray:none;stroke-opacity:1"
             id="path92" />
        </g>
      </g>
    </g>
  </g>
</svg>
